<?xml version="1.0" encoding="UTF-8" standalone="no"?>
<!-- Generator: Adobe Illustrator 17.0.0, SVG Export Plug-In . SVG Version: 6.00 Build 0)  -->

<svg
   xmlns:dc="http://purl.org/dc/elements/1.1/"
   xmlns:cc="http://creativecommons.org/ns#"
   xmlns:rdf="http://www.w3.org/1999/02/22-rdf-syntax-ns#"
   xmlns:svg="http://www.w3.org/2000/svg"
   xmlns="http://www.w3.org/2000/svg"
   xmlns:sodipodi="http://sodipodi.sourceforge.net/DTD/sodipodi-0.dtd"
   xmlns:inkscape="http://www.inkscape.org/namespaces/inkscape"
   version="1.1"
   id="Layer_1"
   x="0px"
   y="0px"
   width="327.168"
   height="198.634"
   viewBox="0 0 327.168 198.634"
   enable-background="new 0 0 304 161"
   xml:space="preserve"
   inkscape:version="0.91 r"
   sodipodi:docname="logo-dark.svg"><metadata
     id="metadata64"><rdf:RDF><cc:Work
         rdf:about=""><dc:format>image/svg+xml</dc:format><dc:type
           rdf:resource="http://purl.org/dc/dcmitype/StillImage" /><dc:title></dc:title></cc:Work></rdf:RDF></metadata><defs
     id="defs62" /><sodipodi:namedview
     pagecolor="#ffffff"
     bordercolor="#666666"
     borderopacity="1"
     objecttolerance="10"
     gridtolerance="10"
     guidetolerance="10"
     inkscape:pageopacity="0"
     inkscape:pageshadow="2"
     inkscape:window-width="1366"
     inkscape:window-height="718"
     id="namedview60"
     showgrid="false"
     fit-margin-left="0"
     fit-margin-top="0"
     fit-margin-right="0"
     fit-margin-bottom="0"
     inkscape:snap-page="true"
     inkscape:snap-grids="true"
     inkscape:snap-to-guides="true"
     inkscape:snap-bbox="true"
     inkscape:bbox-nodes="true"
     inkscape:snap-intersection-paths="true"
     showguides="true"
     inkscape:guide-bbox="true"
     inkscape:zoom="1.7631579"
     inkscape:cx="150.57991"
     inkscape:cy="121.57731"
     inkscape:window-x="0"
     inkscape:window-y="0"
     inkscape:window-maximized="1"
     inkscape:current-layer="Layer_1"
     showborder="true"
     borderlayer="true"
     inkscape:showpageshadow="false" /><rect
     style="opacity:1;fill:#02192f;fill-opacity:0;stroke:none;stroke-width:1;stroke-miterlimit:4;stroke-dasharray:none;stroke-opacity:1"
     id="rect3411"
     width="327.168"
     height="198.634"
     x="0"
     y="1.1657342e-14"
     inkscape:export-filename="/media/daniel/STORE/www/sci/php/app/webroot/images/mail/logo-sci.png"
     inkscape:export-xdpi="40.574249"
     inkscape:export-ydpi="40.574249" /><g
     id="g11"
     transform="translate(19.168,17.912999)"><path
       d="m 69.481,158.166 -0.073,-0.125 c -0.016,-0.027 -0.032,-0.054 -0.051,-0.082 -0.022,-0.033 -0.046,-0.064 -0.059,-0.079 l -11.849,-17.06 10.373,-14.766 0.027,-0.044 c 0.173,-0.214 0.267,-0.478 0.267,-0.75 0,-0.583 -0.427,-1.077 -0.985,-1.18 l -8.595,-0.021 c -0.335,0 -0.653,0.142 -0.882,0.392 l -0.087,0.104 c -0.019,0.026 -0.037,0.054 -0.084,0.127 l -5.593,8.39 -5.705,-8.241 -0.04,0.17 -0.001,0 c -0.208,-1 -0.531,-0.688 -0.884,-0.714 l -8.816,-0.116 c -0.663,0 -1.202,0.483 -1.202,1.146 0,0.254 0.081,0.471 0.23,0.675 l 10.453,15.049 -11.504,16.819 c -0.189,0.22 -0.293,0.577 -0.293,0.861 0,0.663 0.539,1.281 1.201,1.281 l 8.571,0 0.105,0 0.005,-0.089 c 0.428,-0.041 0.801,-0.349 0.979,-0.745 l 6.765,-10.231 6.815,10.276 0.03,0.03 c 0.196,0.334 0.537,0.551 0.917,0.588 l 8.879,0.006 0.141,-0.005 0.008,-0.014 c 0.58,-0.089 1.017,-0.585 1.017,-1.185 0,-0.154 -0.031,-0.304 -0.091,-0.449 l 0.011,-0.018 z"
       id="path13"
       inkscape:connector-curvature="0"
       style="fill:#ffffff" /><path
       d="m 92.28,152.057 -0.085,-0.045 c -0.294,-0.097 -0.887,0.021 -0.872,0.022 -0.493,0.045 -1.012,0.067 -1.545,0.067 -1.561,0 -2.571,-0.251 -3.065,-0.747 -0.495,-0.494 -0.712,-1.536 -0.712,-3.098 l 0,-17.217 5.861,0.018 c 0.053,0 0.063,-0.012 0.081,-0.019 0.621,-0.061 1.057,-0.569 1.057,-1.183 l 0,-4.597 c 0,-0.663 -0.509,-1.26 -1.171,-1.26 l -5.894,0 -0.006,-9.251 c 0.004,-0.015 0.015,-0.276 0.006,-0.372 -0.029,-0.645 -0.553,-1.376 -1.193,-1.376 l -7.796,0 c -0.632,0 -1.157,0.712 -1.197,1.341 l -0.003,9.66 -4.667,0 C 70.416,124 70,124.598 70,125.26 l 0,4.597 c 0,0.614 0.407,1.122 1.021,1.183 l 0.089,-0.001 c 0.053,0 0.064,-0.038 0.058,-0.038 l 4.832,0 0,20.6 c 0,1.81 0.181,3.296 0.79,4.417 0.61,1.129 1.393,2.011 2.453,2.622 1.043,0.604 2.235,1.017 3.603,1.226 1.344,0.205 2.776,0.309 4.286,0.309 0.939,0 1.923,-0.023 2.937,-0.069 0.542,-0.024 1.078,-0.067 1.692,-0.136 l 0.068,0.008 c 0.126,0 0.215,-0.032 0.326,-0.065 0.514,-0.155 0.844,-0.611 0.844,-1.136 l 0,-5.598 0.012,-0.187 c -0.065,-0.429 -0.334,-0.781 -0.731,-0.935 z"
       id="path15"
       inkscape:connector-curvature="0"
       style="fill:#ffffff" /><path
       d="m 161.494,127.193 c -0.977,-1.279 -2.33,-2.293 -4.024,-3.013 -1.686,-0.715 -3.865,-1.078 -6.477,-1.078 -2.074,0 -4.13,0.479 -6.112,1.424 -1.857,0.885 -3.41,2.28 -4.624,4.15 l 0.015,-3.42 c 0,-0.049 -0.011,-0.117 -0.015,-0.117 -0.045,-0.61 -0.528,-1.14 -1.133,-1.14 l -7.397,0 c -0.65,0 -0.726,0.608 -0.726,1.257 l 0,33.375 c 0,0.663 0.085,1.368 0.748,1.368 l 7.797,0 c 0.63,0 1.285,-0.581 1.318,-1.186 0.005,-0.017 0.137,-0.136 0.137,-0.236 l 0,-17.484 c 0,-3.522 0.448,-6.078 1.592,-7.595 1.127,-1.496 2.922,-2.254 5.465,-2.254 2.216,0 3.742,0.684 4.601,2.033 0.879,1.386 1.309,3.534 1.309,6.383 l -0.003,18.872 c -0.005,0.017 -0.02,0.053 -0.02,0.099 l 0.009,0.152 c 0.037,0.635 0.558,1.217 1.188,1.217 l 7.796,0 c 0.663,0 1.063,-0.706 1.063,-1.368 l 0,-20.746 c 0,-2.187 -0.128,-4.213 -0.517,-6.022 -0.394,-1.824 -1.017,-3.396 -1.99,-4.671 z"
       id="path17"
       inkscape:connector-curvature="0"
       style="fill:#ffffff" /><path
       d="m 276.001,158.319 0.209,-0.155 c -0.158,-0.537 -0.066,-1.172 -0.155,-1.887 -0.18,-1.439 -0.055,-2.967 -0.055,-4.54 l 0,-18.354 c 0,-2.183 -0.715,-3.966 -1.698,-5.3 -0.975,-1.323 -2.353,-2.37 -3.885,-3.113 -1.519,-0.735 -3.274,-1.236 -5.11,-1.489 -3.859,-0.528 -7.628,-0.532 -11.334,0.207 -1.955,0.392 -3.75,1.056 -5.311,1.975 -1.573,0.925 -2.893,2.167 -3.909,3.692 -0.828,1.241 -1.375,2.799 -1.629,4.657 -0.015,0.053 -0.034,0.118 -0.034,0.199 l 0.01,0.07 c 0.038,0.626 0.537,1.111 1.104,1.118 l 8.961,0.009 0.021,-0.227 c 0.173,-1.828 0.783,-3.146 1.811,-3.917 1.043,-0.782 2.507,-1.179 4.353,-1.179 0.84,0 1.643,0.057 2.384,0.168 0.715,0.108 1.35,0.327 1.888,0.649 0.527,0.316 0.956,0.767 1.274,1.34 0.319,0.574 0.48,1.371 0.481,2.38 0.041,0.927 -0.219,1.608 -0.796,2.081 -0.604,0.496 -1.443,0.881 -2.495,1.144 -1.074,0.269 -2.325,0.473 -3.716,0.607 -1.403,0.136 -2.854,0.321 -4.313,0.549 -1.452,0.227 -2.918,0.538 -4.359,0.927 -1.454,0.392 -2.766,0.99 -3.898,1.775 -1.143,0.793 -2.087,1.867 -2.806,3.19 -0.722,1.325 -1.088,3.03 -1.088,5.066 0,1.849 0.318,3.468 0.944,4.813 0.628,1.35 1.513,2.482 2.63,3.365 1.112,0.881 2.427,1.539 3.909,1.955 1.471,0.414 3.078,0.624 4.775,0.624 2.197,0 4.38,-0.325 6.486,-0.966 1.956,-0.595 3.698,-1.614 5.187,-3.033 0.047,0.419 0.111,0.834 0.193,1.24 0.031,0.155 -0.031,0.305 0.013,0.456 0.022,0.078 -0.045,0.156 -0.045,0.188 l 0,0.021 c 0,0.193 0.157,0.465 0.265,0.661 0.217,0.395 0.711,0.714 1.146,0.714 l 7.702,0 c 0.663,0 1.202,-0.622 1.202,-1.285 0,-0.155 -0.041,-0.334 -0.077,-0.437 l -0.235,0.042 z M 265,142.83 l 0,3.107 c 0,0.524 0.133,1.249 0.021,2.152 -0.109,0.872 -0.314,1.747 -0.796,2.603 -0.478,0.846 -1.181,1.584 -2.185,2.196 -1,0.609 -2.425,0.918 -4.281,0.918 -0.756,0 -1.487,-0.067 -2.194,-0.2 -0.694,-0.13 -1.301,-0.359 -1.817,-0.682 -0.508,-0.318 -0.912,-0.757 -1.207,-1.306 -0.297,-0.55 -0.446,-1.245 -0.446,-2.065 0,-0.864 0.151,-1.582 0.448,-2.133 0.299,-0.555 0.7,-1.021 1.191,-1.384 0.499,-0.368 1.095,-0.666 1.77,-0.884 0.701,-0.225 1.414,-0.406 2.117,-0.538 0.752,-0.132 1.527,-0.247 2.305,-0.339 0.781,-0.092 1.533,-0.208 2.236,-0.344 0.711,-0.138 1.198,-0.312 1.821,-0.52 0.453,-0.15 1.017,-0.345 1.017,-0.581 z"
       id="path19"
       inkscape:connector-curvature="0"
       style="fill:#ffffff" /><path
       d="M 288,112.202 C 288,111.538 287.462,111 286.798,111 l -7.597,0 c -0.664,0 -1.202,0.538 -1.202,1.202 l 0,46.597 c 0,0.664 0.538,1.202 1.202,1.202 l 7.597,0 c 0.664,0 1.202,-0.538 1.202,-1.202 l 0,-46.597 z"
       id="path21"
       inkscape:connector-curvature="0"
       style="fill:#ffffff" /><path
       d="m 127.478,136.391 c -0.643,-2.522 -1.701,-4.8 -3.145,-6.772 -1.45,-1.978 -3.327,-3.575 -5.579,-4.747 -2.254,-1.174 -4.933,-1.769 -7.962,-1.769 -2.704,0 -5.205,0.489 -7.434,1.454 -2.225,0.963 -4.169,2.302 -5.779,3.979 -1.609,1.679 -2.867,3.693 -3.738,5.987 -0.871,2.29 -1.312,4.799 -1.312,7.457 0,2.749 0.43,5.303 1.277,7.592 0.849,2.295 2.071,4.298 3.635,5.953 1.563,1.657 3.499,2.951 5.752,3.848 2.246,0.895 4.802,1.348 7.598,1.348 4.033,0 7.521,-0.932 10.371,-2.769 2.532,-1.633 4.511,-4.264 5.883,-7.818 l 0.085,-0.249 c 0.021,-0.074 0.048,-0.166 0.048,-0.273 0,-0.644 -0.507,-1.168 -1.112,-1.188 l -0.09,-0.007 -6.459,0.005 c -0.014,-0.004 -0.046,-0.013 -0.087,-0.013 l -0.14,0.014 -0.006,0.004 c -0.389,0.048 -0.728,0.278 -0.911,0.619 l -0.038,0.07 c -0.399,0.845 -1.172,1.668 -2.297,2.448 -1.36,0.944 -3.011,1.422 -4.906,1.422 -2.65,0 -4.703,-0.463 -6.104,-1.82 -1.361,-1.317 -2.134,-4.168 -2.299,-6.168 l 24.295,0 c 0.564,0 1.041,-0.621 1.17,-1.232 0.014,-0.051 0.032,-0.228 0.032,-0.307 0,-0.064 -0.015,-0.173 -0.028,-0.19 0.065,-2.394 -0.177,-4.746 -0.72,-6.878 z m -9.551,1.609 -15.186,0 c 0.061,-1 0.199,-1.311 0.412,-2.046 0.238,-0.826 0.66,-1.646 1.252,-2.392 0.589,-0.742 1.388,-1.385 2.375,-1.889 0.983,-0.502 2.242,-0.763 3.741,-0.763 2.28,0 3.997,0.658 5.103,1.872 1.075,1.181 1.849,3.218 2.303,5.218 z"
       id="path23"
       inkscape:connector-curvature="0"
       style="fill:#ffffff" /><path
       d="m 239.957,136.392 c -0.643,-2.521 -1.7,-4.8 -3.145,-6.773 -1.45,-1.978 -3.327,-3.575 -5.579,-4.747 -2.254,-1.174 -4.934,-1.769 -7.962,-1.769 -2.704,0 -5.205,0.489 -7.433,1.454 -2.226,0.963 -4.17,2.302 -5.779,3.979 -1.609,1.679 -2.866,3.693 -3.737,5.987 -0.871,2.291 -1.312,4.8 -1.312,7.457 0,2.75 0.43,5.304 1.278,7.591 0.848,2.294 2.071,4.297 3.635,5.953 1.563,1.657 3.499,2.951 5.752,3.848 2.246,0.895 4.802,1.348 7.598,1.348 4.033,0 7.521,-0.932 10.371,-2.769 2.532,-1.633 4.511,-4.264 5.884,-7.82 l 0.086,-0.25 c 0.021,-0.073 0.046,-0.164 0.046,-0.27 0,-0.644 -0.507,-1.168 -1.111,-1.188 l -0.091,-0.007 -6.459,0.005 c -0.014,-0.004 -0.046,-0.013 -0.087,-0.013 l -0.14,0.014 -0.006,0.004 c -0.387,0.047 -0.724,0.275 -0.907,0.613 l -0.042,0.077 c -0.399,0.845 -1.172,1.668 -2.297,2.448 -1.36,0.944 -3.01,1.422 -4.906,1.422 -2.65,0 -4.703,-0.463 -6.104,-1.82 -1.361,-1.316 -2.134,-4.168 -2.299,-6.168 l 24.296,0 c 0.564,0 1.041,-0.621 1.169,-1.232 0.014,-0.051 0.032,-0.228 0.032,-0.307 0,-0.064 -0.015,-0.173 -0.028,-0.19 0.062,-2.392 -0.18,-4.744 -0.723,-6.877 z m -20.7,-4.73 c 0.983,-0.502 2.242,-0.757 3.741,-0.757 2.28,0 3.997,0.661 5.103,1.875 1.076,1.181 1.85,3.221 2.305,5.221 l -15.187,0 c 0.061,-1 0.199,-1.311 0.412,-2.046 0.238,-0.826 0.66,-1.646 1.252,-2.392 0.589,-0.743 1.388,-1.397 2.374,-1.901 z"
       id="path25"
       inkscape:connector-curvature="0"
       style="fill:#ffffff" /><path
       d="m 35.434,149.884 c 0.021,-0.074 0.048,-0.166 0.048,-0.273 0,-0.644 -0.507,-1.168 -1.111,-1.188 l -0.091,-0.007 -6.459,0.005 c -0.014,-0.004 -0.046,-0.013 -0.087,-0.013 l -0.146,0.015 -0.006,0.005 c -0.384,0.049 -0.718,0.276 -0.9,0.612 l -0.042,0.077 c -0.399,0.845 -1.172,1.668 -2.297,2.448 -1.36,0.944 -3.01,1.422 -4.906,1.422 -2.65,0 -4.704,-0.463 -6.104,-1.82 -1.361,-1.316 -2.134,-4.168 -2.299,-6.168 l 24.295,0 c 0.564,0 1.041,-0.621 1.17,-1.234 0.014,-0.051 0.031,-0.227 0.031,-0.305 0,-0.064 -0.015,-0.173 -0.028,-0.19 0.063,-2.394 -0.179,-4.718 -0.722,-6.852 -0.643,-2.522 -1.701,-4.815 -3.145,-6.787 -1.45,-1.978 -3.327,-3.582 -5.579,-4.754 -2.254,-1.174 -4.933,-1.773 -7.962,-1.773 -2.704,0 -5.205,0.487 -7.434,1.452 -2.225,0.963 -4.169,2.301 -5.779,3.979 -1.609,1.679 -2.866,3.692 -3.737,5.986 -0.871,2.29 -1.312,4.799 -1.312,7.457 0,2.75 0.43,5.304 1.278,7.591 0.848,2.294 2.07,4.297 3.634,5.953 1.563,1.656 3.499,2.951 5.752,3.848 2.246,0.895 4.802,1.348 7.598,1.348 4.033,0 7.521,-0.932 10.371,-2.769 2.532,-1.633 4.511,-4.264 5.883,-7.818 l 0.086,-0.247 z M 15.081,131.662 c 0.983,-0.502 2.242,-0.757 3.741,-0.757 2.281,0 3.998,0.661 5.103,1.875 1.075,1.18 1.85,3.22 2.304,5.22 l -15.187,0 c 0.061,-1 0.199,-1.311 0.412,-2.046 0.238,-0.826 0.66,-1.646 1.252,-2.392 0.589,-0.742 1.388,-1.396 2.375,-1.9 z"
       id="path27"
       inkscape:connector-curvature="0"
       style="fill:#ffffff" /><path
       d="m 201.442,111 -7.796,0 c -0.63,0 -1.38,0.306 -1.414,0.912 -0.005,0.017 -0.232,-0.138 -0.232,-0.039 l 0,16.115 c -1,-1.525 -2.279,-2.711 -4.021,-3.53 -1.914,-0.899 -3.844,-1.354 -5.963,-1.354 -2.622,0 -4.9,0.526 -6.882,1.564 -1.978,1.035 -3.619,2.423 -4.932,4.128 -1.31,1.701 -2.297,3.69 -2.961,5.914 -0.664,2.219 -0.993,4.55 -0.993,6.929 0,2.469 0.34,4.88 1.003,7.165 0.664,2.292 1.666,4.35 2.975,6.118 1.314,1.775 3.008,3.2 5.035,4.236 2.026,1.037 4.406,1.562 7.074,1.562 2.344,0 4.479,-0.432 6.347,-1.285 1.708,-0.78 3.136,-2.025 4.251,-3.705 l -0.008,2.876 c 0,0.029 0.003,0.141 0.009,0.19 0.054,0.619 0.562,1.203 1.168,1.203 l 7.351,0 c 0.667,0 1.547,-0.726 1.547,-1.393 l 0,-46.788 C 203,111.157 202.105,111 201.442,111 Z m -24.527,34.949 c -0.312,-1.338 -0.471,-2.697 -0.471,-4.037 0,-1.435 0.147,-2.828 0.438,-4.143 0.288,-1.307 0.759,-2.485 1.4,-3.502 0.633,-1.005 1.488,-1.827 2.541,-2.442 1.048,-0.611 2.36,-0.92 3.9,-0.92 1.537,0 2.825,0.309 3.827,0.918 1.009,0.615 1.843,1.427 2.479,2.413 0.64,0.994 1.099,2.158 1.364,3.462 0.268,1.321 0.404,2.716 0.404,4.147 0,1.43 -0.136,2.837 -0.404,4.182 -0.267,1.331 -0.715,2.532 -1.334,3.571 -0.613,1.028 -1.444,1.86 -2.472,2.472 -1.024,0.61 -2.324,0.919 -3.863,0.919 -1.449,0 -2.702,-0.32 -3.725,-0.952 -1.032,-0.635 -1.901,-1.482 -2.583,-2.517 -0.687,-1.041 -1.192,-2.242 -1.501,-3.571 z"
       id="path29"
       inkscape:connector-curvature="0"
       style="fill:#ffffff" /></g><g
     id="g31"
     transform="translate(14.116,17.912999)"><linearGradient
       id="SVGID_1_"
       gradientUnits="userSpaceOnUse"
       x1="149.468"
       y1="14.8866"
       x2="149.468"
       y2="44.4086"><stop
         offset="0"
         style="stop-color:#FF6300"
         id="stop34" /><stop
         offset="1"
         style="stop-color:#BF440C"
         id="stop36" /></linearGradient><circle
       cx="149.468"
       cy="16.565001"
       r="14.478"
       id="circle38"
       style="fill:url(#SVGID_1_)" /><g
       id="g40"><linearGradient
         id="SVGID_2_"
         gradientUnits="userSpaceOnUse"
         x1="125.8481"
         y1="50.4706"
         x2="171.6452"
         y2="75.289703"><stop
           offset="0"
           style="stop-color:#FF6300"
           id="stop43" /><stop
           offset="1"
           style="stop-color:#773303"
           id="stop45" /></linearGradient><path
         d="M 138.708,36.334 138.31,36.143 98.446,16.994 98.232,16.891 c -0.383,-0.154 -0.799,-0.243 -1.236,-0.243 -1.836,0 -3.324,1.488 -3.324,3.324 l 0,27.111 c 0,4.286 3.246,9.041 7.413,11.066 l 0.095,0.046 44.79,21.514 0,-32.39 c -0.001,-4.233 -3.169,-8.919 -7.262,-10.985 z"
         id="path47"
         inkscape:connector-curvature="0"
         style="fill:url(#SVGID_2_)" /><path
         d="m 145.969,52.811 0.028,-5.728 c 0,17.113 -25.609,34.54 -40.995,43.466 -0.014,0.008 -0.029,0.017 -0.043,0.025 -0.881,0.598 -1.46,1.607 -1.46,2.751 0,1.836 1.488,3.324 3.324,3.324 6.718,0 15.233,0 23.652,0 16.891,0 15.493,-15.673 15.493,-15.673 l 0,-28.165 z"
         id="path49"
         inkscape:connector-curvature="0"
         style="fill:#ff6300" /><linearGradient
         id="SVGID_3_"
         gradientUnits="userSpaceOnUse"
         x1="-30.931101"
         y1="50.4706"
         x2="14.866"
         y2="75.289703"
         gradientTransform="matrix(-1,0,0,1,142.1568,0)"><stop
           offset="0"
           style="stop-color:#FF6300"
           id="stop52" /><stop
           offset="1"
           style="stop-color:#773303"
           id="stop54" /></linearGradient><path
         d="m 160.228,36.334 0.398,-0.191 39.864,-19.148 0.214,-0.103 c 0.383,-0.154 0.799,-0.243 1.236,-0.243 1.836,0 3.324,1.488 3.324,3.324 l 0,27.111 c 0,4.286 -3.246,9.041 -7.413,11.066 l -0.095,0.046 -44.79,21.514 0,-32.39 c 0.001,-4.234 3.169,-8.92 7.262,-10.986 z"
         id="path56"
         inkscape:connector-curvature="0"
         style="fill:url(#SVGID_3_)" /><path
         d="m 152.967,52.811 -0.028,-5.728 c 0,17.113 25.609,34.54 40.995,43.466 0.014,0.008 0.029,0.017 0.043,0.025 0.881,0.598 1.46,1.607 1.46,2.751 0,1.836 -1.488,3.324 -3.324,3.324 -6.718,0 -15.233,0 -23.652,0 -16.891,0 -15.493,-15.673 -15.493,-15.673 l 0,-28.165 z"
         id="path58"
         inkscape:connector-curvature="0"
         style="fill:#ff6300" /></g></g></svg>
